#N canvas 581 211 878 470 10;
#X obj 53 71 osc~;
#X obj 53 104 hip~ 5;
#X obj 26 177 output~;
#X msg 18 36 440;
#X msg 70 36 800;
#X obj 182 246 osc~;
#X obj 182 279 hip~ 5;
#X obj 155 352 output~;
#X obj 182 215 mtof;
#X msg 132 185 60;
#X msg 163 185 62;
#X msg 195 184 64;
#X msg 226 188 65;
#X msg 259 186 67;
#X msg 292 188 69;
#X msg 324 189 71;
#X msg 361 190 72;
#X obj 198 116 random 5;
#X obj 195 146 select 0 1 2 3 4;
#X obj 204 41 bng 15 250 50 0 empty empty empty 17 7 0 10 -262144 -1
-1;
#X obj 199 87 metro 240;
#X obj 386 -11 osc~;
#X obj 428 161 hip~ 5;
#X obj 415 198 output~;
#X obj 434 9 osc~;
#X obj 486 31 osc~;
#X obj 381 -53 hsl 128 15 0 127 0 0 empty empty empty -2 -8 0 10 -262144
-1 -1 1500 1;
#X obj 431 -31 hsl 128 15 0 127 0 0 empty empty empty -2 -8 0 10 -262144
-1 -1 1800 1;
#X obj 481 -10 hsl 128 15 0 127 0 0 empty empty empty -2 -8 0 10 -262144
-1 -1 200 1;
#X obj 377 51 *~;
#X obj 426 53 *~;
#X obj 477 54 *~;
#X obj 401 77 +~;
#X obj 436 107 +~;
#X msg 386 -34 261.6;
#X msg 435 -13 329.6;
#X msg 486 9 391.9;
#X obj 433 133 /~ 3;
#X connect 0 0 1 0;
#X connect 1 0 2 0;
#X connect 1 0 2 1;
#X connect 3 0 0 0;
#X connect 4 0 0 0;
#X connect 5 0 6 0;
#X connect 6 0 7 0;
#X connect 6 0 7 1;
#X connect 8 0 5 0;
#X connect 9 0 8 0;
#X connect 10 0 8 0;
#X connect 11 0 8 0;
#X connect 12 0 8 0;
#X connect 13 0 8 0;
#X connect 14 0 8 0;
#X connect 15 0 8 0;
#X connect 16 0 8 0;
#X connect 17 0 18 0;
#X connect 18 0 9 0;
#X connect 18 1 10 0;
#X connect 18 2 11 0;
#X connect 18 3 13 0;
#X connect 18 4 14 0;
#X connect 19 0 20 0;
#X connect 20 0 17 0;
#X connect 21 0 29 1;
#X connect 22 0 23 0;
#X connect 22 0 23 1;
#X connect 24 0 30 1;
#X connect 25 0 31 1;
#X connect 26 0 29 0;
#X connect 27 0 30 0;
#X connect 28 0 31 0;
#X connect 29 0 32 0;
#X connect 30 0 32 1;
#X connect 31 0 33 1;
#X connect 32 0 33 0;
#X connect 33 0 37 0;
#X connect 34 0 21 0;
#X connect 35 0 24 0;
#X connect 36 0 25 0;
#X connect 37 0 22 0;
